<svg xmlns="http://www.w3.org/2000/svg" xmlns:xlink="http://www.w3.org/1999/xlink" version="1.1" x="0px" y="0px" viewBox="0 0 100 100" enable-background="new 0 0 100 100" xml:space="preserve"><g><path d="M92.5,42.5V40v-2.5H90V35v-2.5V30h-2.5v-2.5V25H85v-2.5h-2.5V20H80v-2.5h-2.5V15H75v-2.5h-2.5H70V10h-2.5H65V7.5h-2.5H60   h-2.5V5H55h-2.5H50h-2.5H45h-2.5v2.5H40h-2.5H35V10h-2.5H30v2.5h-2.5H25V15h-2.5v2.5H20V20h-2.5v2.5H15V25h-2.5v2.5V30H10v2.5V35   v2.5H7.5V40v2.5V45H5v2.5V50v2.5V55h2.5v2.5V60v2.5H10V65v2.5V70h2.5v2.5V75H15v2.5h2.5V80H20v2.5h2.5V85H25v2.5h2.5H30V90h2.5H35   v2.5h2.5H40h2.5V95H45h2.5H50h2.5H55h2.5v-2.5H60h2.5H65V90h2.5H70v-2.5h2.5H75V85h2.5v-2.5H80V80h2.5v-2.5H85V75h2.5v-2.5V70H90   v-2.5V65v-2.5h2.5V60v-2.5V55H95v-2.5V50v-2.5V45h-2.5V42.5z M65,47.5V50v2.5V55h-2.5v2.5V60v2.5H60V65v2.5V70h-2.5v2.5V75H55v2.5   h-2.5V80H50v2.5h-2.5V85H45h-2.5v2.5H40h-2.5H35h-2.5V85H30h-2.5v-2.5H25V80h-2.5v-2.5H20V75h-2.5v-2.5V70H15v-2.5V65v-2.5h-2.5V60   v-2.5V55H10v-2.5V50v-2.5V45h2.5v-2.5V40v-2.5H15V35v-2.5V30h2.5v-2.5V25H20v-2.5h2.5V20H25v-2.5h2.5V15H30h2.5v-2.5H35h2.5H40h2.5   V15H45h2.5v2.5H50V20h2.5v2.5H55V25h2.5v2.5V30H60v2.5V35v2.5h2.5V40v2.5V45H65V47.5z"/></g></svg>